<svg xmlns="http://www.w3.org/2000/svg" width="50" height="700" viewBox="0 0 50 700">
  <g fill="none" stroke="#00979d" stroke-width="2" stroke-linecap="round" opacity="0.6">
    <path d="M 10,0 L 10,120 L 30,140 L 30,350 L 15,365 L 15,500 L 40,525 L 40,700" />
    <circle cx="10" cy="120" r="3" fill="#00979d" />
    <circle cx="30" cy="350" r="3" fill="#00979d" />
    <circle cx="15" cy="500" r="3" fill="#00979d" />
    <path d="M 25,0 L 25,80 L 40,95 L 40,260 L 20,280 L 20,440 L 35,455 L 35,700" stroke="#005f73" />
    <circle cx="25" cy="80" r="3" fill="#005f73" />
    <circle cx="40" cy="260" r="3" fill="#005f73" />
    <circle cx="20" cy="440" r="3" fill="#005f73" />
    <path d="M 40,0 L 40,40 L 15,65 L 15,200 L 35,220 L 35,480 L 10,505 L 10,700" stroke="#00d2ff" />
    <circle cx="40" cy="40" r="3" fill="#00d2ff" />
    <circle cx="15" cy="200" r="3" fill="#00d2ff" />
    <circle cx="35" cy="480" r="3" fill="#00d2ff" />
  </g>
</svg>
